<svg width="240" height="39" viewBox="0 0 240 39" fill="none" xmlns="http://www.w3.org/2000/svg">
<path d="M27.9674 0.878913C20.2424 0.874913 12.1824 2.61491 4.04745 4.87191C3.01445 5.07991 2.00645 5.75591 1.47345 6.59191C0.98345 7.37991 0.80545 8.17091 0.65245 8.99991C-0.13755 13.4279 -0.0415503 17.7759 0.12245 22.5939C0.15845 23.6969 0.32245 25.0039 0.83745 25.7989C1.37545 26.6019 2.29745 27.1119 3.39845 27.2789C4.80505 27.4852 6.21607 27.6603 7.63045 27.8039L7.31845 36.5019C7.27045 37.1939 7.60845 37.7689 8.02845 38.0999C8.40445 38.3859 8.82345 38.5129 9.25345 38.5449C10.1135 38.6099 11.1225 38.2419 11.6235 37.2879C13.8185 33.0639 15.1955 31.1989 17.9405 28.3929C25.0985 28.5689 31.3475 28.1709 38.4225 27.6479C40.9235 27.5829 42.6405 25.5379 43.0945 23.9049C44.4515 19.6729 44.6624 14.4489 44.8064 9.16791C44.8674 7.07491 44.1414 5.01991 42.8564 3.93391C41.6344 2.94291 40.1545 2.58391 38.7985 2.21591C35.0315 1.36291 31.2634 0.904913 27.9674 0.878913ZM38.2575 4.18891C39.6155 4.55791 40.8125 4.91291 41.5675 5.52591C42.8275 6.86491 42.7854 7.75591 42.7674 9.20091C42.6254 14.3229 42.3794 19.2939 41.2234 23.0609C40.7254 24.4659 39.8574 25.4659 38.2174 25.6169C31.0094 26.1499 24.7555 26.5619 17.5105 26.3559C17.3694 26.3514 17.2289 26.3759 17.0976 26.4278C16.9664 26.4798 16.8472 26.5581 16.7474 26.6579C13.7034 29.7319 12.1465 31.8679 9.82645 36.3339C9.77245 36.4359 9.65545 36.4979 9.51145 36.5089C9.41445 36.5039 9.37545 36.4289 9.36945 36.3609L9.68345 26.9289C9.70245 26.4199 9.28245 25.9339 8.77645 25.8789C7.08457 25.7173 5.3973 25.5106 3.71645 25.2589C2.99045 25.1479 2.72245 24.9489 2.52345 24.6529C2.17745 23.8279 2.18545 23.3179 2.15845 22.5249C1.99645 17.7499 1.91645 13.5769 2.64945 9.42491C2.71745 8.81091 2.94745 8.18291 3.19145 7.65791C3.59545 7.02591 4.21445 6.93291 4.83545 6.76091C12.7914 4.56391 20.5754 2.92091 27.9035 2.91591C31.4955 3.04591 35.2675 3.40591 38.2575 4.18891V4.18891ZM10.7785 12.2789C9.68245 13.5919 9.79145 15.3749 10.6384 16.5689C11.0804 17.1939 11.7704 17.6969 12.6104 17.8109C13.7014 17.9009 14.3935 17.4589 15.1405 16.9509C16.4935 15.7749 16.6305 13.7229 15.6014 12.2409C15.0774 11.4859 14.2395 11.0329 13.3835 11.0009C12.2115 11.0129 11.4155 11.5359 10.7785 12.2779V12.2789ZM22.6345 11.2069C21.5425 11.2419 20.6595 11.9979 20.1205 12.8139C19.5035 13.7469 19.1435 14.9149 19.6425 16.0599C20.6025 18.2629 23.9195 18.2359 25.2425 15.9969C25.8525 14.9649 25.6965 13.7919 25.2425 12.9409C24.7905 12.0909 24.1065 11.3979 23.1115 11.2389C22.9538 11.213 22.7941 11.2023 22.6345 11.2069V11.2069ZM32.2594 11.4139C31.9194 11.4059 31.5694 11.4379 31.2414 11.5249C29.9294 11.8749 28.8125 13.2289 28.9815 14.9619C29.0675 15.8339 29.4685 16.6839 30.1915 17.2699C30.9145 17.8549 31.9644 18.1169 33.0714 17.8899C34.3434 17.6299 35.1315 16.6049 35.3945 15.6149C35.6575 14.6249 35.5914 13.6159 34.9804 12.7979C34.6625 12.3752 34.2522 12.0307 33.7808 11.7908C33.3093 11.551 32.7893 11.422 32.2604 11.4139H32.2594ZM13.2944 13.0369C13.5394 13.0389 13.7324 13.1169 13.9314 13.4029C14.3764 14.0449 14.2525 15.0179 13.8035 15.4079C13.3565 15.7979 13.0774 15.8319 12.8814 15.8059C12.6854 15.7789 12.4864 15.6439 12.3084 15.3919C11.9684 14.9119 11.8684 14.1359 12.3154 13.5819C12.5534 13.2659 12.9905 13.0689 13.2955 13.0369H13.2944ZM22.7775 13.2599C22.8155 13.2659 23.2414 13.5129 23.4454 13.8959C23.6494 14.2789 23.6875 14.6349 23.4935 14.9619C22.9165 15.9379 21.6895 15.6739 21.5035 15.2489C21.4335 15.0869 21.4865 14.4359 21.8235 13.9289C22.1585 13.4199 22.5805 13.2289 22.7775 13.2589V13.2599ZM33.3414 14.0079C33.4034 14.0909 33.5545 14.6479 33.4375 15.0899C33.3195 15.5319 33.1275 15.8049 32.6575 15.9009C32.0555 16.0249 31.7175 15.9009 31.4645 15.6939C31.2105 15.4889 31.0395 15.1419 31.0025 14.7709C30.9125 13.8509 31.2425 13.6379 31.7665 13.4979C32.3765 13.3479 33.0664 13.6099 33.3414 14.0079V14.0079Z" fill="white"/>
<path d="M57.6113 4.99528C57.6273 4.73528 57.7223 4.50128 57.8983 4.29428C57.984 4.1928 58.0916 4.11215 58.2131 4.05844C58.3345 4.00473 58.4666 3.97937 58.5993 3.98428H65.4253C65.6553 3.98428 65.8923 4.08028 66.1373 4.27128C66.2521 4.3537 66.3455 4.46248 66.4095 4.58846C66.4735 4.71445 66.5064 4.85396 66.5053 4.99528V15.8883H77.9263V4.99528C77.9263 4.71928 78.0223 4.48228 78.2133 4.28328C78.4053 4.08328 78.6533 3.98328 78.9603 3.98328H85.6943C86.0003 3.98328 86.2683 4.06028 86.4983 4.21328C86.7283 4.36728 86.8433 4.61228 86.8433 4.94928V37.0993C86.8433 37.4363 86.7433 37.6893 86.5433 37.8573C86.3453 38.0263 86.0843 38.1103 85.7633 38.1103H78.9603C78.6543 38.1103 78.4053 38.0263 78.2133 37.8573C78.0223 37.6893 77.9263 37.4373 77.9263 37.0993V24.0463H66.5053V37.0993C66.5053 37.4213 66.4013 37.6693 66.1953 37.8463C65.9883 38.0223 65.7083 38.1103 65.3553 38.1103H58.5993C57.9563 38.1103 57.6273 37.8113 57.6113 37.2143V4.99528ZM120.486 37.7203C120.287 37.8883 120.076 37.9953 119.854 38.0413C119.647 38.086 119.435 38.1094 119.223 38.1113H115.753C115.477 38.1113 115.239 38.0613 115.04 37.9613C114.84 37.8613 114.672 37.7273 114.534 37.5593C114.393 37.3848 114.277 37.1912 114.19 36.9843C114.098 36.7681 114.021 36.5455 113.96 36.3183L113.248 33.3763C113.018 33.8513 112.685 34.3913 112.248 34.9963C111.776 35.6383 111.215 36.2106 110.582 36.6963C109.908 37.2263 109.103 37.6703 108.169 38.0303C107.234 38.3903 106.162 38.5703 104.951 38.5703C103.205 38.5703 101.619 38.2333 100.194 37.5593C98.7992 36.9074 97.558 35.9675 96.5523 34.8013C95.5493 33.6373 94.7713 32.2773 94.2203 30.7213C93.6683 29.1673 93.3923 27.5083 93.3923 25.7473V10.6943C93.3923 10.1123 93.5193 9.67228 93.7723 9.37328C94.0243 9.07428 94.4263 8.92528 94.9783 8.92528H100.286C100.946 8.92528 101.397 9.03528 101.642 9.25828C101.887 9.48028 102.01 9.91328 102.01 10.5563V25.5163C102.01 26.1763 102.16 26.8003 102.458 27.3903C102.757 27.9803 103.151 28.5003 103.642 28.9523C104.132 29.4043 104.687 29.7613 105.308 30.0213C105.928 30.2813 106.56 30.4113 107.204 30.4113C107.755 30.4113 108.326 30.2813 108.916 30.0213C109.51 29.7579 110.06 29.4052 110.547 28.9753C111.045 28.5393 111.455 28.0253 111.777 27.4353C112.099 26.8453 112.259 26.2213 112.259 25.5633V10.6253C112.259 10.3653 112.309 10.1053 112.409 9.84428C112.509 9.58428 112.658 9.38428 112.857 9.24628C113.056 9.12428 113.244 9.04028 113.42 8.99428C113.596 8.94828 113.8 8.92428 114.029 8.92428H119.223C119.881 8.92428 120.356 9.08628 120.647 9.40728C120.938 9.72928 121.084 10.1583 121.084 10.6943V36.4103C121.084 36.7003 121.019 36.9693 120.889 37.2143C120.759 37.4593 120.579 37.6513 120.349 37.7883L120.486 37.7203V37.7203ZM147.167 34.5483C146.753 34.9623 146.297 35.4063 145.8 35.8813C145.302 36.3563 144.754 36.8013 144.157 37.2143C143.556 37.6299 142.909 37.9733 142.227 38.2373C141.516 38.5094 140.759 38.6458 139.997 38.6393C137.914 38.6393 135.995 38.2493 134.24 37.4673C132.53 36.7166 130.989 35.6258 129.713 34.2613C128.449 32.9053 127.461 31.3083 126.749 29.4693C126.036 27.6313 125.68 25.6553 125.68 23.5403C125.68 21.4103 126.036 19.4303 126.749 17.6003C127.461 15.7703 128.449 14.1763 129.713 12.8203C130.988 11.457 132.529 10.3699 134.24 9.62628C135.995 8.85228 137.914 8.46528 139.997 8.46528C140.84 8.46528 141.61 8.58828 142.307 8.83328C142.98 9.06629 143.621 9.38277 144.214 9.77528C144.789 10.1583 145.317 10.5913 145.8 11.0733C146.282 11.5563 146.738 12.0273 147.167 12.4873V1.98428C147.167 1.49428 147.317 1.08128 147.615 0.744281C147.914 0.406281 148.362 0.238281 148.96 0.238281H154.13C154.33 0.238281 154.54 0.280281 154.762 0.364281C154.984 0.449281 155.187 0.567281 155.372 0.721281C155.555 0.874281 155.704 1.05828 155.819 1.27228C155.934 1.48728 155.992 1.72428 155.992 1.98428V36.3413C155.992 37.5213 155.372 38.1113 154.13 38.1113H149.626C149.32 38.1113 149.082 38.0713 148.914 37.9953C148.747 37.9204 148.601 37.8061 148.488 37.6623C148.36 37.4936 148.256 37.3082 148.178 37.1113C148.07 36.8518 147.955 36.5951 147.834 36.3413L147.167 34.5483V34.5483ZM133.953 23.5403C133.946 24.5067 134.105 25.4671 134.424 26.3793C134.738 27.2593 135.186 28.0223 135.769 28.6653C136.358 29.3133 137.073 29.8335 137.871 30.1933C138.691 30.5693 139.599 30.7563 140.595 30.7563C141.575 30.7563 142.498 30.5803 143.364 30.2283C144.205 29.8914 144.974 29.3957 145.627 28.7683C146.277 28.14 146.803 27.3959 147.179 26.5743C147.569 25.7313 147.788 24.8273 147.834 23.8623V23.5403C147.838 22.5786 147.65 21.6258 147.282 20.7373C146.926 19.8662 146.408 19.0707 145.754 18.3933C145.099 17.7166 144.319 17.1741 143.456 16.7963C142.555 16.4013 141.58 16.2016 140.595 16.2103C139.599 16.2103 138.691 16.4053 137.871 16.7963C137.051 17.1863 136.351 17.7193 135.769 18.3933C135.178 19.0832 134.721 19.8784 134.424 20.7373C134.109 21.6379 133.95 22.586 133.954 23.5403H133.953ZM182.673 34.5483C182.259 34.9623 181.803 35.4063 181.305 35.8813C180.807 36.3563 180.259 36.8013 179.662 37.2143C179.061 37.6299 178.414 37.9733 177.732 38.2373C177.021 38.5094 176.264 38.6458 175.502 38.6393C173.419 38.6393 171.5 38.2493 169.746 37.4673C168.035 36.7167 166.495 35.6259 165.218 34.2613C163.955 32.9053 162.966 31.3083 162.254 29.4693C161.542 27.6313 161.185 25.6553 161.185 23.5403C161.185 21.4103 161.542 19.4303 162.254 17.6003C162.966 15.7703 163.954 14.1763 165.218 12.8203C166.493 11.4569 168.034 10.3698 169.746 9.62628C171.5 8.85228 173.419 8.46528 175.502 8.46528C176.345 8.46528 177.115 8.58828 177.812 8.83328C178.485 9.06629 179.126 9.38277 179.719 9.77528C180.294 10.1583 180.822 10.5913 181.305 11.0733C181.788 11.5563 182.243 12.0273 182.672 12.4873V1.98428C182.672 1.49428 182.822 1.08128 183.12 0.744281C183.42 0.406281 183.867 0.238281 184.465 0.238281H189.635C189.835 0.238281 190.045 0.280281 190.267 0.364281C190.49 0.449281 190.693 0.567281 190.877 0.721281C191.06 0.874281 191.21 1.05828 191.325 1.27228C191.439 1.48728 191.497 1.72428 191.497 1.98428V36.3413C191.497 37.5213 190.877 38.1113 189.635 38.1113H185.131C184.825 38.1113 184.587 38.0713 184.419 37.9953C184.253 37.9203 184.107 37.806 183.994 37.6623C183.866 37.4936 183.762 37.3082 183.684 37.1113C183.576 36.8518 183.461 36.5951 183.339 36.3413L182.672 34.5483H182.673ZM169.458 23.5403C169.451 24.5067 169.61 25.4671 169.929 26.3793C170.244 27.2593 170.692 28.0223 171.274 28.6653C171.863 29.3135 172.579 29.8336 173.377 30.1933C174.197 30.5693 175.104 30.7563 176.1 30.7563C177.08 30.7563 178.003 30.5803 178.869 30.2283C179.711 29.8915 180.479 29.3958 181.133 28.7683C181.782 28.1398 182.308 27.3957 182.683 26.5743C183.074 25.7313 183.293 24.8273 183.339 23.8623V23.5403C183.343 22.5786 183.155 21.6258 182.787 20.7373C182.431 19.8662 181.913 19.0707 181.259 18.3933C180.604 17.7166 179.824 17.1741 178.961 16.7963C178.06 16.4013 177.085 16.2016 176.1 16.2103C175.104 16.2103 174.196 16.4053 173.377 16.7963C172.557 17.1863 171.856 17.7193 171.274 18.3933C170.683 19.0832 170.226 19.8784 169.929 20.7373C169.614 21.6379 169.455 22.586 169.459 23.5403H169.458ZM197.611 2.00728C197.611 1.51728 197.733 1.10428 197.978 0.767281C198.224 0.429281 198.645 0.261281 199.242 0.261281H204.872C205.026 0.261281 205.187 0.303281 205.355 0.387281C205.532 0.477869 205.691 0.598694 205.826 0.744281C205.972 0.897281 206.094 1.08128 206.194 1.29528C206.294 1.51028 206.344 1.74728 206.344 2.00728V36.3413C206.344 36.9233 206.179 37.3633 205.849 37.6623C205.52 37.9613 205.095 38.1103 204.574 38.1103H199.242C198.645 38.1103 198.224 37.9603 197.978 37.6623C197.733 37.3633 197.611 36.9223 197.611 36.3413V2.00728ZM236.311 34.6173C234.979 35.8482 233.438 36.8325 231.761 37.5243C230.063 38.2241 228.243 38.5796 226.406 38.5703C224.306 38.5703 222.323 38.1873 220.454 37.4203C218.628 36.682 216.958 35.602 215.536 34.2383C214.12 32.872 212.98 31.2449 212.181 29.4463C211.353 27.6083 210.94 25.6093 210.94 23.4483C210.94 22.1003 211.104 20.7943 211.434 19.5303C211.753 18.2935 212.224 17.1011 212.836 15.9803C213.442 14.8771 214.183 13.8541 215.042 12.9353C215.9 12.0149 216.878 11.2147 217.949 10.5563C219.04 9.88943 220.215 9.3715 221.442 9.01628C222.734 8.64382 224.073 8.45827 225.417 8.46528C226.689 8.46528 227.922 8.63428 229.117 8.97128C230.312 9.30828 231.435 9.78328 232.484 10.3953C233.534 11.0083 234.494 11.7443 235.368 12.6023C236.23 13.446 236.986 14.3912 237.62 15.4173C238.249 16.4359 238.74 17.533 239.08 18.6803C239.424 19.8373 239.597 21.0283 239.597 22.2533C239.597 23.0503 239.585 23.7013 239.562 24.2073C239.539 24.7123 239.42 25.1153 239.206 25.4133C238.991 25.7133 238.636 25.9193 238.137 26.0333C237.639 26.1493 236.907 26.2063 235.943 26.2063H219.397C219.55 27.1863 219.86 28.0063 220.327 28.6663C220.76 29.291 221.31 29.8253 221.947 30.2393C222.56 30.6303 223.211 30.9093 223.901 31.0793C224.54 31.241 225.196 31.3257 225.854 31.3313C226.406 31.3313 226.972 31.2733 227.554 31.1593C228.128 31.0467 228.693 30.893 229.244 30.6993C229.76 30.52 230.26 30.2969 230.737 30.0323C231.189 29.7803 231.553 29.5153 231.829 29.2403C232.074 29.0403 232.285 28.8913 232.461 28.7913C232.637 28.6913 232.825 28.6423 233.024 28.6423C233.224 28.6423 233.426 28.7123 233.634 28.8493C233.886 29.0254 234.121 29.2253 234.334 29.4463L236.77 32.2043C236.938 32.4043 237.046 32.5843 237.092 32.7443C237.138 32.9053 237.161 33.0703 237.161 33.2383C237.161 33.5453 237.076 33.8093 236.908 34.0313C236.738 34.2546 236.537 34.452 236.31 34.6173H236.311ZM225.257 15.4743C224.659 15.4743 224.081 15.5933 223.522 15.8303C222.955 16.0725 222.425 16.3937 221.947 16.7843C221.457 17.1823 221.017 17.6343 220.626 18.1403C220.253 18.6173 219.933 19.1337 219.672 19.6803H231.415C231.107 19.1041 230.758 18.551 230.37 18.0253C230.002 17.5265 229.569 17.0783 229.083 16.6923C228.587 16.3017 228.027 15.9987 227.428 15.7963C226.808 15.5813 226.084 15.4743 225.257 15.4743Z" fill="white"/>
</svg>
